<mxfile host="app.diagrams.net" modified="2024-05-25T22:54:37.070Z" agent="Mozilla/5.0 (Windows NT 10.0; Win64; x64) AppleWebKit/537.36 (KHTML, like Gecko) Chrome/125.0.0.0 Safari/537.36" etag="kWv-DHghA86bBQnGP0O9" version="24.4.8" type="device">
  <diagram id="C5RBs43oDa-KdzZeNtuy" name="Page-1">
    <mxGraphModel dx="1050" dy="1699" grid="1" gridSize="10" guides="1" tooltips="1" connect="1" arrows="1" fold="1" page="1" pageScale="1" pageWidth="827" pageHeight="1169" math="0" shadow="0">
      <root>
        <mxCell id="WIyWlLk6GJQsqaUBKTNV-0" />
        <mxCell id="WIyWlLk6GJQsqaUBKTNV-1" parent="WIyWlLk6GJQsqaUBKTNV-0" />
        <mxCell id="cTxIWnlI1TcFDgYOLBWV-183" style="edgeStyle=none;curved=1;rounded=0;orthogonalLoop=1;jettySize=auto;html=1;exitX=0.5;exitY=0;exitDx=0;exitDy=0;fontSize=12;startSize=8;endSize=8;labelBackgroundColor=none;strokeColor=#A8201A;fontColor=default;" parent="WIyWlLk6GJQsqaUBKTNV-1" edge="1">
          <mxGeometry relative="1" as="geometry">
            <mxPoint x="787" y="420" as="sourcePoint" />
            <mxPoint x="787" y="420" as="targetPoint" />
          </mxGeometry>
        </mxCell>
        <mxCell id="cTxIWnlI1TcFDgYOLBWV-189" style="edgeStyle=none;curved=1;rounded=0;orthogonalLoop=1;jettySize=auto;html=1;exitX=0.5;exitY=0;exitDx=0;exitDy=0;fontSize=12;startSize=8;endSize=8;labelBackgroundColor=none;strokeColor=#A8201A;fontColor=default;" parent="WIyWlLk6GJQsqaUBKTNV-1" source="cTxIWnlI1TcFDgYOLBWV-406" target="cTxIWnlI1TcFDgYOLBWV-305" edge="1">
          <mxGeometry relative="1" as="geometry">
            <mxPoint x="740" y="180" as="sourcePoint" />
            <mxPoint x="250" y="500" as="targetPoint" />
          </mxGeometry>
        </mxCell>
        <mxCell id="cTxIWnlI1TcFDgYOLBWV-194" value="" style="endArrow=classic;html=1;rounded=0;fontSize=12;startSize=8;endSize=8;curved=1;entryX=0.105;entryY=1.018;entryDx=0;entryDy=0;exitX=1;exitY=0;exitDx=0;exitDy=0;labelBackgroundColor=none;strokeColor=#A8201A;fontColor=default;entryPerimeter=0;" parent="WIyWlLk6GJQsqaUBKTNV-1" source="cTxIWnlI1TcFDgYOLBWV-407" target="cTxIWnlI1TcFDgYOLBWV-280" edge="1">
          <mxGeometry width="50" height="50" relative="1" as="geometry">
            <mxPoint x="827" y="460" as="sourcePoint" />
            <mxPoint x="920" y="320" as="targetPoint" />
          </mxGeometry>
        </mxCell>
        <mxCell id="cTxIWnlI1TcFDgYOLBWV-385" style="edgeStyle=none;curved=1;rounded=0;orthogonalLoop=1;jettySize=auto;html=1;exitX=1;exitY=0;exitDx=0;exitDy=0;entryX=0;entryY=0;entryDx=0;entryDy=0;strokeColor=#A8201A;fontSize=12;fontColor=default;startSize=8;endSize=8;fillColor=#FAE5C7;labelBackgroundColor=none;" parent="WIyWlLk6GJQsqaUBKTNV-1" source="cTxIWnlI1TcFDgYOLBWV-404" target="cTxIWnlI1TcFDgYOLBWV-333" edge="1">
          <mxGeometry relative="1" as="geometry">
            <mxPoint x="1020" as="sourcePoint" />
          </mxGeometry>
        </mxCell>
        <mxCell id="cTxIWnlI1TcFDgYOLBWV-204" style="edgeStyle=none;curved=1;rounded=0;orthogonalLoop=1;jettySize=auto;html=1;exitX=0;exitY=1;exitDx=0;exitDy=0;entryX=1.024;entryY=0.456;entryDx=0;entryDy=0;fontSize=12;startSize=8;endSize=8;labelBackgroundColor=none;strokeColor=#A8201A;fontColor=default;entryPerimeter=0;" parent="WIyWlLk6GJQsqaUBKTNV-1" source="cTxIWnlI1TcFDgYOLBWV-405" target="cTxIWnlI1TcFDgYOLBWV-280" edge="1">
          <mxGeometry relative="1" as="geometry">
            <mxPoint x="1080" y="170" as="sourcePoint" />
            <mxPoint x="1025" y="290" as="targetPoint" />
          </mxGeometry>
        </mxCell>
        <mxCell id="cTxIWnlI1TcFDgYOLBWV-379" style="edgeStyle=none;curved=1;rounded=0;orthogonalLoop=1;jettySize=auto;html=1;exitX=1;exitY=0;exitDx=0;exitDy=0;entryX=0;entryY=0.25;entryDx=0;entryDy=0;strokeColor=#A8201A;fontSize=12;fontColor=default;startSize=8;endSize=8;fillColor=#FAE5C7;labelBackgroundColor=none;" parent="WIyWlLk6GJQsqaUBKTNV-1" source="cTxIWnlI1TcFDgYOLBWV-405" target="cTxIWnlI1TcFDgYOLBWV-328" edge="1">
          <mxGeometry relative="1" as="geometry">
            <mxPoint x="1160" y="170" as="sourcePoint" />
          </mxGeometry>
        </mxCell>
        <mxCell id="cTxIWnlI1TcFDgYOLBWV-206" value="" style="endArrow=classic;html=1;rounded=0;fontSize=12;startSize=8;endSize=8;curved=1;entryX=0.5;entryY=1;entryDx=0;entryDy=0;exitX=0.5;exitY=0;exitDx=0;exitDy=0;labelBackgroundColor=none;strokeColor=#A8201A;fontColor=default;" parent="WIyWlLk6GJQsqaUBKTNV-1" source="cTxIWnlI1TcFDgYOLBWV-396" target="cTxIWnlI1TcFDgYOLBWV-314" edge="1">
          <mxGeometry width="50" height="50" relative="1" as="geometry">
            <mxPoint x="1410" y="380" as="sourcePoint" />
            <mxPoint x="1650" y="230" as="targetPoint" />
          </mxGeometry>
        </mxCell>
        <mxCell id="cTxIWnlI1TcFDgYOLBWV-210" value="" style="endArrow=classic;html=1;rounded=0;fontSize=12;startSize=8;endSize=8;curved=1;entryX=1;entryY=0.25;entryDx=0;entryDy=0;labelBackgroundColor=none;strokeColor=#A8201A;fontColor=default;exitX=0;exitY=0;exitDx=0;exitDy=0;" parent="WIyWlLk6GJQsqaUBKTNV-1" source="cTxIWnlI1TcFDgYOLBWV-400" target="cTxIWnlI1TcFDgYOLBWV-314" edge="1">
          <mxGeometry width="50" height="50" relative="1" as="geometry">
            <mxPoint x="1470" y="430" as="sourcePoint" />
            <mxPoint x="1650" y="260" as="targetPoint" />
          </mxGeometry>
        </mxCell>
        <mxCell id="cTxIWnlI1TcFDgYOLBWV-219" style="edgeStyle=none;curved=1;rounded=0;orthogonalLoop=1;jettySize=auto;html=1;exitX=0;exitY=0;exitDx=0;exitDy=0;entryX=0.68;entryY=1.005;entryDx=0;entryDy=0;fontSize=12;startSize=8;endSize=8;labelBackgroundColor=none;strokeColor=#A8201A;fontColor=default;entryPerimeter=0;" parent="WIyWlLk6GJQsqaUBKTNV-1" source="cTxIWnlI1TcFDgYOLBWV-340" target="cTxIWnlI1TcFDgYOLBWV-280" edge="1">
          <mxGeometry relative="1" as="geometry">
            <mxPoint x="1040" y="580" as="sourcePoint" />
            <mxPoint x="982.4000000000001" y="320" as="targetPoint" />
          </mxGeometry>
        </mxCell>
        <mxCell id="cTxIWnlI1TcFDgYOLBWV-222" style="edgeStyle=none;curved=1;rounded=0;orthogonalLoop=1;jettySize=auto;html=1;entryX=0.5;entryY=1;entryDx=0;entryDy=0;fontSize=12;startSize=8;endSize=8;labelBackgroundColor=none;strokeColor=#A8201A;fontColor=default;exitX=0.5;exitY=0;exitDx=0;exitDy=0;" parent="WIyWlLk6GJQsqaUBKTNV-1" source="cTxIWnlI1TcFDgYOLBWV-341" target="cTxIWnlI1TcFDgYOLBWV-280" edge="1">
          <mxGeometry relative="1" as="geometry">
            <mxPoint x="895" y="680" as="sourcePoint" />
            <mxPoint x="965" y="320" as="targetPoint" />
          </mxGeometry>
        </mxCell>
        <mxCell id="cTxIWnlI1TcFDgYOLBWV-226" style="edgeStyle=none;curved=1;rounded=0;orthogonalLoop=1;jettySize=auto;html=1;exitX=1;exitY=0;exitDx=0;exitDy=0;entryX=0.295;entryY=1.009;entryDx=0;entryDy=0;fontSize=12;startSize=8;endSize=8;labelBackgroundColor=none;strokeColor=#A8201A;fontColor=default;entryPerimeter=0;" parent="WIyWlLk6GJQsqaUBKTNV-1" source="cTxIWnlI1TcFDgYOLBWV-342" target="cTxIWnlI1TcFDgYOLBWV-280" edge="1">
          <mxGeometry relative="1" as="geometry">
            <mxPoint x="870" y="545" as="sourcePoint" />
            <mxPoint x="949.6400000000001" y="320.7800000000002" as="targetPoint" />
          </mxGeometry>
        </mxCell>
        <mxCell id="cTxIWnlI1TcFDgYOLBWV-241" value="" style="endArrow=none;html=1;rounded=0;fontSize=12;startSize=8;endSize=8;curved=1;entryX=0.88;entryY=1.009;entryDx=0;entryDy=0;exitX=0;exitY=0.5;exitDx=0;exitDy=0;labelBackgroundColor=none;strokeColor=#A8201A;fontColor=default;entryPerimeter=0;" parent="WIyWlLk6GJQsqaUBKTNV-1" source="cTxIWnlI1TcFDgYOLBWV-390" target="cTxIWnlI1TcFDgYOLBWV-280" edge="1">
          <mxGeometry width="50" height="50" relative="1" as="geometry">
            <mxPoint x="1100" y="440" as="sourcePoint" />
            <mxPoint x="995" y="320" as="targetPoint" />
          </mxGeometry>
        </mxCell>
        <mxCell id="cTxIWnlI1TcFDgYOLBWV-249" style="edgeStyle=none;curved=1;rounded=0;orthogonalLoop=1;jettySize=auto;html=1;entryX=1;entryY=0.25;entryDx=0;entryDy=0;fontSize=12;startSize=8;endSize=8;labelBackgroundColor=none;strokeColor=#A8201A;fontColor=default;exitX=0.32;exitY=0.812;exitDx=0;exitDy=0;exitPerimeter=0;" parent="WIyWlLk6GJQsqaUBKTNV-1" source="cTxIWnlI1TcFDgYOLBWV-402" target="cTxIWnlI1TcFDgYOLBWV-313" edge="1">
          <mxGeometry relative="1" as="geometry">
            <mxPoint x="1490" y="300" as="sourcePoint" />
            <mxPoint x="1659.96" y="215.48000000000002" as="targetPoint" />
          </mxGeometry>
        </mxCell>
        <mxCell id="cTxIWnlI1TcFDgYOLBWV-255" value="" style="endArrow=classic;html=1;rounded=0;fontSize=12;startSize=8;endSize=8;curved=1;entryX=0;entryY=0.25;entryDx=0;entryDy=0;exitX=1;exitY=0;exitDx=0;exitDy=0;labelBackgroundColor=none;strokeColor=#A8201A;fontColor=default;" parent="WIyWlLk6GJQsqaUBKTNV-1" source="cTxIWnlI1TcFDgYOLBWV-394" target="cTxIWnlI1TcFDgYOLBWV-322" edge="1">
          <mxGeometry width="50" height="50" relative="1" as="geometry">
            <mxPoint x="1180" y="310" as="sourcePoint" />
            <mxPoint x="1340" y="340" as="targetPoint" />
          </mxGeometry>
        </mxCell>
        <mxCell id="cTxIWnlI1TcFDgYOLBWV-279" value="Recipe" style="swimlane;childLayout=stackLayout;horizontal=1;startSize=50;horizontalStack=0;rounded=1;fontSize=14;fontStyle=0;strokeWidth=2;resizeParent=0;resizeLast=1;shadow=0;dashed=0;align=center;arcSize=4;whiteSpace=wrap;html=1;fillColor=#FAE5C7;strokeColor=#0F8B8D;glass=0;swimlaneLine=1;labelBackgroundColor=none;fontColor=#143642;" parent="WIyWlLk6GJQsqaUBKTNV-1" vertex="1">
          <mxGeometry x="870" y="170" width="160" height="250" as="geometry" />
        </mxCell>
        <mxCell id="cTxIWnlI1TcFDgYOLBWV-280" value="&lt;u&gt;Recipe ID&lt;/u&gt;&lt;div&gt;Name&lt;/div&gt;&lt;div&gt;Description&lt;/div&gt;&lt;div&gt;Patry/Cookery&lt;/div&gt;&lt;div&gt;Preperation Time&lt;/div&gt;&lt;div&gt;Cooking Time&lt;/div&gt;&lt;div&gt;Difficulty&lt;/div&gt;&lt;div&gt;Carbs/Portion&lt;/div&gt;&lt;div&gt;Fats/Portion&lt;/div&gt;&lt;div&gt;Protein/Portion&lt;/div&gt;&lt;div&gt;Portion&lt;/div&gt;&lt;div&gt;Mealtype&lt;/div&gt;&lt;div&gt;Image&lt;/div&gt;" style="align=left;strokeColor=none;fillColor=none;spacingLeft=4;fontSize=12;verticalAlign=top;resizable=0;rotatable=0;part=1;html=1;labelBackgroundColor=none;fontColor=#143642;" parent="cTxIWnlI1TcFDgYOLBWV-279" vertex="1">
          <mxGeometry y="50" width="160" height="200" as="geometry" />
        </mxCell>
        <mxCell id="cTxIWnlI1TcFDgYOLBWV-289" value="Recipe Tags" style="swimlane;childLayout=stackLayout;horizontal=1;startSize=50;horizontalStack=0;rounded=1;fontSize=14;fontStyle=0;strokeWidth=2;resizeParent=0;resizeLast=1;shadow=0;dashed=0;align=center;arcSize=4;whiteSpace=wrap;html=1;fillColor=#FAE5C7;strokeColor=#0F8B8D;glass=0;swimlaneLine=1;labelBackgroundColor=none;fontColor=#143642;" parent="WIyWlLk6GJQsqaUBKTNV-1" vertex="1">
          <mxGeometry x="837" y="635" width="160" height="80" as="geometry" />
        </mxCell>
        <mxCell id="cTxIWnlI1TcFDgYOLBWV-290" value="Tags" style="align=left;strokeColor=none;fillColor=none;spacingLeft=4;fontSize=12;verticalAlign=top;resizable=0;rotatable=0;part=1;html=1;labelBackgroundColor=none;fontColor=#143642;" parent="cTxIWnlI1TcFDgYOLBWV-289" vertex="1">
          <mxGeometry y="50" width="160" height="30" as="geometry" />
        </mxCell>
        <mxCell id="cTxIWnlI1TcFDgYOLBWV-291" style="edgeStyle=none;curved=1;rounded=0;orthogonalLoop=1;jettySize=auto;html=1;exitX=0.5;exitY=1;exitDx=0;exitDy=0;fontSize=12;startSize=8;endSize=8;labelBackgroundColor=none;strokeColor=#A8201A;fontColor=default;" parent="cTxIWnlI1TcFDgYOLBWV-289" source="cTxIWnlI1TcFDgYOLBWV-290" target="cTxIWnlI1TcFDgYOLBWV-290" edge="1">
          <mxGeometry relative="1" as="geometry" />
        </mxCell>
        <mxCell id="cTxIWnlI1TcFDgYOLBWV-292" value="Recipe Tips" style="swimlane;childLayout=stackLayout;horizontal=1;startSize=50;horizontalStack=0;rounded=1;fontSize=14;fontStyle=0;strokeWidth=2;resizeParent=0;resizeLast=1;shadow=0;dashed=0;align=center;arcSize=4;whiteSpace=wrap;html=1;fillColor=#FAE5C7;strokeColor=#0F8B8D;glass=0;swimlaneLine=1;labelBackgroundColor=none;fontColor=#143642;" parent="WIyWlLk6GJQsqaUBKTNV-1" vertex="1">
          <mxGeometry x="650" y="635" width="160" height="80" as="geometry" />
        </mxCell>
        <mxCell id="cTxIWnlI1TcFDgYOLBWV-293" value="Tips" style="align=left;strokeColor=none;fillColor=none;spacingLeft=4;fontSize=12;verticalAlign=top;resizable=0;rotatable=0;part=1;html=1;labelBackgroundColor=none;fontColor=#143642;" parent="cTxIWnlI1TcFDgYOLBWV-292" vertex="1">
          <mxGeometry y="50" width="160" height="30" as="geometry" />
        </mxCell>
        <mxCell id="cTxIWnlI1TcFDgYOLBWV-294" style="edgeStyle=none;curved=1;rounded=0;orthogonalLoop=1;jettySize=auto;html=1;exitX=0.5;exitY=1;exitDx=0;exitDy=0;fontSize=12;startSize=8;endSize=8;labelBackgroundColor=none;strokeColor=#A8201A;fontColor=default;" parent="cTxIWnlI1TcFDgYOLBWV-292" source="cTxIWnlI1TcFDgYOLBWV-293" target="cTxIWnlI1TcFDgYOLBWV-293" edge="1">
          <mxGeometry relative="1" as="geometry" />
        </mxCell>
        <mxCell id="cTxIWnlI1TcFDgYOLBWV-296" style="edgeStyle=none;curved=1;rounded=0;orthogonalLoop=1;jettySize=auto;html=1;exitX=0.5;exitY=1;exitDx=0;exitDy=0;fontSize=12;startSize=8;endSize=8;labelBackgroundColor=none;strokeColor=#A8201A;fontColor=default;" parent="cTxIWnlI1TcFDgYOLBWV-292" source="cTxIWnlI1TcFDgYOLBWV-293" target="cTxIWnlI1TcFDgYOLBWV-293" edge="1">
          <mxGeometry relative="1" as="geometry" />
        </mxCell>
        <mxCell id="cTxIWnlI1TcFDgYOLBWV-301" value="Ingredients" style="swimlane;childLayout=stackLayout;horizontal=1;startSize=50;horizontalStack=0;rounded=1;fontSize=14;fontStyle=0;strokeWidth=2;resizeParent=0;resizeLast=1;shadow=0;dashed=0;align=center;arcSize=4;whiteSpace=wrap;html=1;fillColor=#FAE5C7;strokeColor=#0F8B8D;glass=0;swimlaneLine=1;labelBackgroundColor=none;fontColor=#143642;" parent="WIyWlLk6GJQsqaUBKTNV-1" vertex="1">
          <mxGeometry x="650" y="320" width="160" height="120" as="geometry" />
        </mxCell>
        <mxCell id="cTxIWnlI1TcFDgYOLBWV-302" value="&lt;div&gt;&lt;u&gt;Ingredient_ID&lt;/u&gt;&lt;/div&gt;Name&lt;div&gt;Calories/Portion&lt;/div&gt;&lt;div&gt;Image&lt;/div&gt;" style="align=left;strokeColor=none;fillColor=none;spacingLeft=4;fontSize=12;verticalAlign=top;resizable=0;rotatable=0;part=1;html=1;labelBackgroundColor=none;fontColor=#143642;" parent="cTxIWnlI1TcFDgYOLBWV-301" vertex="1">
          <mxGeometry y="50" width="160" height="70" as="geometry" />
        </mxCell>
        <mxCell id="cTxIWnlI1TcFDgYOLBWV-303" style="edgeStyle=none;curved=1;rounded=0;orthogonalLoop=1;jettySize=auto;html=1;exitX=0.5;exitY=1;exitDx=0;exitDy=0;fontSize=12;startSize=8;endSize=8;labelBackgroundColor=none;strokeColor=#A8201A;fontColor=default;" parent="cTxIWnlI1TcFDgYOLBWV-301" source="cTxIWnlI1TcFDgYOLBWV-302" target="cTxIWnlI1TcFDgYOLBWV-302" edge="1">
          <mxGeometry relative="1" as="geometry" />
        </mxCell>
        <mxCell id="cTxIWnlI1TcFDgYOLBWV-384" style="edgeStyle=none;curved=1;rounded=0;orthogonalLoop=1;jettySize=auto;html=1;exitX=0.5;exitY=0;exitDx=0;exitDy=0;strokeColor=#A8201A;fontSize=12;fontColor=default;startSize=8;endSize=8;fillColor=#FAE5C7;labelBackgroundColor=none;" parent="cTxIWnlI1TcFDgYOLBWV-301" source="cTxIWnlI1TcFDgYOLBWV-302" target="cTxIWnlI1TcFDgYOLBWV-302" edge="1">
          <mxGeometry relative="1" as="geometry" />
        </mxCell>
        <mxCell id="cTxIWnlI1TcFDgYOLBWV-304" value="Foodgroups" style="swimlane;childLayout=stackLayout;horizontal=1;startSize=50;horizontalStack=0;rounded=1;fontSize=14;fontStyle=0;strokeWidth=2;resizeParent=0;resizeLast=1;shadow=0;dashed=0;align=center;arcSize=4;whiteSpace=wrap;html=1;fillColor=#FAE5C7;strokeColor=#0F8B8D;glass=0;swimlaneLine=1;labelBackgroundColor=none;fontColor=#143642;" parent="WIyWlLk6GJQsqaUBKTNV-1" vertex="1">
          <mxGeometry x="650" y="65" width="160" height="115" as="geometry" />
        </mxCell>
        <mxCell id="cTxIWnlI1TcFDgYOLBWV-305" value="&lt;div&gt;&lt;u&gt;FoodGroup_ID&lt;/u&gt;&lt;/div&gt;Name&lt;div&gt;Description&lt;/div&gt;&lt;div&gt;Image&lt;/div&gt;" style="align=left;strokeColor=none;fillColor=none;spacingLeft=4;fontSize=12;verticalAlign=top;resizable=0;rotatable=0;part=1;html=1;labelBackgroundColor=none;fontColor=#143642;" parent="cTxIWnlI1TcFDgYOLBWV-304" vertex="1">
          <mxGeometry y="50" width="160" height="65" as="geometry" />
        </mxCell>
        <mxCell id="cTxIWnlI1TcFDgYOLBWV-306" style="edgeStyle=none;curved=1;rounded=0;orthogonalLoop=1;jettySize=auto;html=1;exitX=0.5;exitY=1;exitDx=0;exitDy=0;fontSize=12;startSize=8;endSize=8;labelBackgroundColor=none;strokeColor=#A8201A;fontColor=default;" parent="cTxIWnlI1TcFDgYOLBWV-304" source="cTxIWnlI1TcFDgYOLBWV-305" target="cTxIWnlI1TcFDgYOLBWV-305" edge="1">
          <mxGeometry relative="1" as="geometry" />
        </mxCell>
        <mxCell id="cTxIWnlI1TcFDgYOLBWV-313" value="Chefs" style="swimlane;childLayout=stackLayout;horizontal=1;startSize=50;horizontalStack=0;rounded=1;fontSize=14;fontStyle=0;strokeWidth=2;resizeParent=0;resizeLast=1;shadow=0;dashed=0;align=center;arcSize=4;whiteSpace=wrap;html=1;fillColor=#FAE5C7;strokeColor=#0F8B8D;glass=0;swimlaneLine=1;labelBackgroundColor=none;fontColor=#143642;" parent="WIyWlLk6GJQsqaUBKTNV-1" vertex="1">
          <mxGeometry x="1221" y="290" width="160" height="190" as="geometry" />
        </mxCell>
        <mxCell id="cTxIWnlI1TcFDgYOLBWV-314" value="&lt;u&gt;Chef_ID&lt;/u&gt;&lt;div&gt;Role&lt;/div&gt;&lt;div&gt;Age&lt;/div&gt;&lt;div&gt;Work Experience&lt;/div&gt;&lt;div&gt;Name&lt;/div&gt;&lt;div&gt;Surname&lt;/div&gt;&lt;div&gt;Telephone&lt;/div&gt;&lt;div&gt;Date of Birth&lt;/div&gt;&lt;div&gt;Image&lt;/div&gt;" style="align=left;strokeColor=none;fillColor=none;spacingLeft=4;fontSize=12;verticalAlign=top;resizable=0;rotatable=0;part=1;html=1;labelBackgroundColor=none;fontColor=#143642;" parent="cTxIWnlI1TcFDgYOLBWV-313" vertex="1">
          <mxGeometry y="50" width="160" height="140" as="geometry" />
        </mxCell>
        <mxCell id="cTxIWnlI1TcFDgYOLBWV-317" value="Episode (Details)" style="swimlane;childLayout=stackLayout;horizontal=1;startSize=50;horizontalStack=0;rounded=1;fontSize=14;fontStyle=0;strokeWidth=2;resizeParent=0;resizeLast=1;shadow=0;dashed=0;align=center;arcSize=0;whiteSpace=wrap;html=1;fillColor=#FAE5C7;strokeColor=#0F8B8D;glass=0;swimlaneLine=1;labelBackgroundColor=none;fontColor=#143642;" parent="WIyWlLk6GJQsqaUBKTNV-1" vertex="1">
          <mxGeometry x="1230" y="627.5" width="160" height="105" as="geometry" />
        </mxCell>
        <mxCell id="cTxIWnlI1TcFDgYOLBWV-318" value="&lt;div&gt;&lt;span style=&quot;background-color: initial;&quot;&gt;Score of Judge 1&lt;/span&gt;&lt;br&gt;&lt;/div&gt;&lt;div&gt;&lt;span style=&quot;background-color: initial;&quot;&gt;Score of Judge 2&lt;/span&gt;&lt;/div&gt;&lt;div&gt;&lt;span style=&quot;background-color: initial;&quot;&gt;Score of Judge 3&lt;/span&gt;&lt;/div&gt;" style="align=left;strokeColor=none;fillColor=none;spacingLeft=4;fontSize=12;verticalAlign=top;resizable=0;rotatable=0;part=1;html=1;labelBackgroundColor=none;fontColor=#143642;" parent="cTxIWnlI1TcFDgYOLBWV-317" vertex="1">
          <mxGeometry y="50" width="160" height="55" as="geometry" />
        </mxCell>
        <mxCell id="cTxIWnlI1TcFDgYOLBWV-319" style="edgeStyle=none;curved=1;rounded=0;orthogonalLoop=1;jettySize=auto;html=1;exitX=0.5;exitY=1;exitDx=0;exitDy=0;fontSize=12;startSize=8;endSize=8;labelBackgroundColor=none;strokeColor=#A8201A;fontColor=default;" parent="cTxIWnlI1TcFDgYOLBWV-317" source="cTxIWnlI1TcFDgYOLBWV-318" target="cTxIWnlI1TcFDgYOLBWV-318" edge="1">
          <mxGeometry relative="1" as="geometry" />
        </mxCell>
        <mxCell id="cTxIWnlI1TcFDgYOLBWV-322" value="Cuisines" style="swimlane;childLayout=stackLayout;horizontal=1;startSize=50;horizontalStack=0;rounded=1;fontSize=14;fontStyle=0;strokeWidth=2;resizeParent=0;resizeLast=1;shadow=0;dashed=0;align=center;arcSize=4;whiteSpace=wrap;html=1;fillColor=#FAE5C7;strokeColor=#0F8B8D;glass=0;swimlaneLine=1;labelBackgroundColor=none;fontColor=#143642;" parent="WIyWlLk6GJQsqaUBKTNV-1" vertex="1">
          <mxGeometry x="1220" y="170" width="160" height="100" as="geometry" />
        </mxCell>
        <mxCell id="cTxIWnlI1TcFDgYOLBWV-323" value="&lt;div&gt;&lt;u&gt;Cuisine ID&lt;/u&gt;&lt;/div&gt;&lt;div&gt;Name&lt;/div&gt;&lt;div&gt;Image&lt;/div&gt;" style="align=left;strokeColor=none;fillColor=none;spacingLeft=4;fontSize=12;verticalAlign=top;resizable=0;rotatable=0;part=1;html=1;labelBackgroundColor=none;fontColor=#143642;" parent="cTxIWnlI1TcFDgYOLBWV-322" vertex="1">
          <mxGeometry y="50" width="160" height="50" as="geometry" />
        </mxCell>
        <mxCell id="cTxIWnlI1TcFDgYOLBWV-324" style="edgeStyle=none;curved=1;rounded=0;orthogonalLoop=1;jettySize=auto;html=1;exitX=0.5;exitY=1;exitDx=0;exitDy=0;fontSize=12;startSize=8;endSize=8;labelBackgroundColor=none;strokeColor=#A8201A;fontColor=default;" parent="cTxIWnlI1TcFDgYOLBWV-322" source="cTxIWnlI1TcFDgYOLBWV-323" target="cTxIWnlI1TcFDgYOLBWV-323" edge="1">
          <mxGeometry relative="1" as="geometry" />
        </mxCell>
        <mxCell id="cTxIWnlI1TcFDgYOLBWV-327" style="edgeStyle=none;curved=1;rounded=0;orthogonalLoop=1;jettySize=auto;html=1;exitX=0.5;exitY=1;exitDx=0;exitDy=0;fontSize=12;startSize=8;endSize=8;labelBackgroundColor=none;strokeColor=#A8201A;fontColor=default;" parent="cTxIWnlI1TcFDgYOLBWV-322" source="cTxIWnlI1TcFDgYOLBWV-323" target="cTxIWnlI1TcFDgYOLBWV-323" edge="1">
          <mxGeometry relative="1" as="geometry" />
        </mxCell>
        <mxCell id="cTxIWnlI1TcFDgYOLBWV-328" value="Equipment" style="swimlane;childLayout=stackLayout;horizontal=1;startSize=50;horizontalStack=0;rounded=1;fontSize=14;fontStyle=0;strokeWidth=2;resizeParent=0;resizeLast=1;shadow=0;dashed=0;align=center;arcSize=4;whiteSpace=wrap;html=1;fillColor=#FAE5C7;strokeColor=#0F8B8D;glass=0;swimlaneLine=1;labelBackgroundColor=none;fontColor=#143642;" parent="WIyWlLk6GJQsqaUBKTNV-1" vertex="1">
          <mxGeometry x="1220" y="40" width="160" height="120" as="geometry" />
        </mxCell>
        <mxCell id="cTxIWnlI1TcFDgYOLBWV-329" value="&lt;div&gt;&lt;u&gt;Equipment_ID&lt;/u&gt;&lt;/div&gt;&lt;div&gt;Name&lt;/div&gt;&lt;div&gt;Description&lt;/div&gt;&lt;div&gt;Image&lt;/div&gt;" style="align=left;strokeColor=none;fillColor=none;spacingLeft=4;fontSize=12;verticalAlign=top;resizable=0;rotatable=0;part=1;html=1;labelBackgroundColor=none;fontColor=#143642;" parent="cTxIWnlI1TcFDgYOLBWV-328" vertex="1">
          <mxGeometry y="50" width="160" height="70" as="geometry" />
        </mxCell>
        <mxCell id="cTxIWnlI1TcFDgYOLBWV-330" style="edgeStyle=none;curved=1;rounded=0;orthogonalLoop=1;jettySize=auto;html=1;exitX=0.5;exitY=1;exitDx=0;exitDy=0;fontSize=12;startSize=8;endSize=8;labelBackgroundColor=none;strokeColor=#A8201A;fontColor=default;" parent="cTxIWnlI1TcFDgYOLBWV-328" source="cTxIWnlI1TcFDgYOLBWV-329" target="cTxIWnlI1TcFDgYOLBWV-329" edge="1">
          <mxGeometry relative="1" as="geometry" />
        </mxCell>
        <mxCell id="cTxIWnlI1TcFDgYOLBWV-332" value="Themes" style="swimlane;childLayout=stackLayout;horizontal=1;startSize=50;horizontalStack=0;rounded=1;fontSize=14;fontStyle=0;strokeWidth=2;resizeParent=0;resizeLast=1;shadow=0;dashed=0;align=center;arcSize=4;whiteSpace=wrap;html=1;fillColor=#FAE5C7;strokeColor=#0F8B8D;glass=0;swimlaneLine=1;labelBackgroundColor=none;fontColor=#143642;" parent="WIyWlLk6GJQsqaUBKTNV-1" vertex="1">
          <mxGeometry x="1221" y="-90" width="160" height="120" as="geometry" />
        </mxCell>
        <mxCell id="cTxIWnlI1TcFDgYOLBWV-333" value="&lt;div&gt;&lt;u&gt;ThemeID&lt;/u&gt;&lt;/div&gt;Name&lt;div&gt;Description&lt;/div&gt;&lt;div&gt;Image&lt;/div&gt;" style="align=left;strokeColor=none;fillColor=none;spacingLeft=4;fontSize=12;verticalAlign=top;resizable=0;rotatable=0;part=1;html=1;labelBackgroundColor=none;fontColor=#143642;" parent="cTxIWnlI1TcFDgYOLBWV-332" vertex="1">
          <mxGeometry y="50" width="160" height="70" as="geometry" />
        </mxCell>
        <mxCell id="cTxIWnlI1TcFDgYOLBWV-334" style="edgeStyle=none;curved=1;rounded=0;orthogonalLoop=1;jettySize=auto;html=1;exitX=0.5;exitY=1;exitDx=0;exitDy=0;fontSize=12;startSize=8;endSize=8;labelBackgroundColor=none;strokeColor=#A8201A;fontColor=default;" parent="cTxIWnlI1TcFDgYOLBWV-332" source="cTxIWnlI1TcFDgYOLBWV-333" target="cTxIWnlI1TcFDgYOLBWV-333" edge="1">
          <mxGeometry relative="1" as="geometry" />
        </mxCell>
        <mxCell id="cTxIWnlI1TcFDgYOLBWV-337" value="" style="endArrow=none;html=1;rounded=0;fontSize=12;startSize=8;endSize=8;curved=1;exitX=1;exitY=0;exitDx=0;exitDy=0;entryX=0;entryY=1;entryDx=0;entryDy=0;labelBackgroundColor=none;strokeColor=#A8201A;fontColor=default;" parent="WIyWlLk6GJQsqaUBKTNV-1" source="cTxIWnlI1TcFDgYOLBWV-280" target="cTxIWnlI1TcFDgYOLBWV-404" edge="1">
          <mxGeometry width="50" height="50" relative="1" as="geometry">
            <mxPoint x="1160" y="120" as="sourcePoint" />
            <mxPoint x="960" y="20" as="targetPoint" />
          </mxGeometry>
        </mxCell>
        <mxCell id="cTxIWnlI1TcFDgYOLBWV-340" value="Provides Steps" style="shape=rhombus;double=1;perimeter=rhombusPerimeter;whiteSpace=wrap;html=1;align=center;strokeColor=#0F8B8D;fontColor=#143642;fillColor=#FAE5C7;labelBackgroundColor=none;" parent="WIyWlLk6GJQsqaUBKTNV-1" vertex="1">
          <mxGeometry x="980" y="510" width="120" height="60" as="geometry" />
        </mxCell>
        <mxCell id="cTxIWnlI1TcFDgYOLBWV-341" value="Describes" style="shape=rhombus;double=1;perimeter=rhombusPerimeter;whiteSpace=wrap;html=1;align=center;strokeColor=#0F8B8D;fontColor=#143642;fillColor=#FAE5C7;labelBackgroundColor=none;" parent="WIyWlLk6GJQsqaUBKTNV-1" vertex="1">
          <mxGeometry x="890" y="540" width="120" height="60" as="geometry" />
        </mxCell>
        <mxCell id="cTxIWnlI1TcFDgYOLBWV-342" value="Provides Tips" style="shape=rhombus;double=1;perimeter=rhombusPerimeter;whiteSpace=wrap;html=1;align=center;strokeColor=#0F8B8D;fontColor=#143642;fillColor=#FAE5C7;labelBackgroundColor=none;" parent="WIyWlLk6GJQsqaUBKTNV-1" vertex="1">
          <mxGeometry x="800" y="510" width="120" height="60" as="geometry" />
        </mxCell>
        <mxCell id="cTxIWnlI1TcFDgYOLBWV-285" value="Recipe Steps" style="swimlane;childLayout=stackLayout;horizontal=1;startSize=50;horizontalStack=0;rounded=1;fontSize=14;fontStyle=0;strokeWidth=2;resizeParent=0;resizeLast=1;shadow=0;dashed=0;align=center;arcSize=4;whiteSpace=wrap;html=1;fillColor=#FAE5C7;strokeColor=#0F8B8D;glass=0;swimlaneLine=1;labelBackgroundColor=none;fontColor=#143642;" parent="WIyWlLk6GJQsqaUBKTNV-1" vertex="1">
          <mxGeometry x="1030" y="635" width="160" height="90" as="geometry" />
        </mxCell>
        <mxCell id="cTxIWnlI1TcFDgYOLBWV-286" value="Step&lt;div&gt;Step Number&lt;/div&gt;" style="align=left;strokeColor=none;fillColor=none;spacingLeft=4;fontSize=12;verticalAlign=top;resizable=0;rotatable=0;part=1;html=1;labelBackgroundColor=none;fontColor=#143642;" parent="cTxIWnlI1TcFDgYOLBWV-285" vertex="1">
          <mxGeometry y="50" width="160" height="40" as="geometry" />
        </mxCell>
        <mxCell id="cTxIWnlI1TcFDgYOLBWV-288" style="edgeStyle=none;curved=1;rounded=0;orthogonalLoop=1;jettySize=auto;html=1;exitX=0.5;exitY=1;exitDx=0;exitDy=0;fontSize=12;startSize=8;endSize=8;labelBackgroundColor=none;strokeColor=#A8201A;fontColor=default;" parent="cTxIWnlI1TcFDgYOLBWV-285" edge="1">
          <mxGeometry relative="1" as="geometry">
            <mxPoint x="49" y="15" as="sourcePoint" />
            <mxPoint x="49" y="15" as="targetPoint" />
          </mxGeometry>
        </mxCell>
        <mxCell id="cTxIWnlI1TcFDgYOLBWV-367" value="" style="shape=link;html=1;rounded=0;strokeColor=#A8201A;fontSize=12;fontColor=default;startSize=8;endSize=8;curved=1;fillColor=#FAE5C7;exitX=1;exitY=1;exitDx=0;exitDy=0;entryX=0.5;entryY=0;entryDx=0;entryDy=0;labelBackgroundColor=none;" parent="WIyWlLk6GJQsqaUBKTNV-1" source="cTxIWnlI1TcFDgYOLBWV-340" target="cTxIWnlI1TcFDgYOLBWV-285" edge="1">
          <mxGeometry relative="1" as="geometry">
            <mxPoint x="1000" y="720" as="sourcePoint" />
            <mxPoint x="1110" y="625" as="targetPoint" />
          </mxGeometry>
        </mxCell>
        <mxCell id="cTxIWnlI1TcFDgYOLBWV-368" value="" style="resizable=0;html=1;whiteSpace=wrap;align=right;verticalAlign=bottom;strokeColor=#0F8B8D;fontColor=#143642;fillColor=#FAE5C7;labelBackgroundColor=none;" parent="cTxIWnlI1TcFDgYOLBWV-367" connectable="0" vertex="1">
          <mxGeometry x="1" relative="1" as="geometry" />
        </mxCell>
        <mxCell id="cTxIWnlI1TcFDgYOLBWV-372" value="" style="shape=link;html=1;rounded=0;strokeColor=#A8201A;fontSize=12;fontColor=default;startSize=8;endSize=8;curved=1;fillColor=#FAE5C7;exitX=0.5;exitY=1;exitDx=0;exitDy=0;entryX=0.5;entryY=0;entryDx=0;entryDy=0;labelBackgroundColor=none;" parent="WIyWlLk6GJQsqaUBKTNV-1" source="cTxIWnlI1TcFDgYOLBWV-341" target="cTxIWnlI1TcFDgYOLBWV-289" edge="1">
          <mxGeometry relative="1" as="geometry">
            <mxPoint x="1000" y="720" as="sourcePoint" />
            <mxPoint x="917" y="625" as="targetPoint" />
          </mxGeometry>
        </mxCell>
        <mxCell id="cTxIWnlI1TcFDgYOLBWV-373" value="" style="resizable=0;html=1;whiteSpace=wrap;align=right;verticalAlign=bottom;strokeColor=#0F8B8D;fontColor=#143642;fillColor=#FAE5C7;labelBackgroundColor=none;" parent="cTxIWnlI1TcFDgYOLBWV-372" connectable="0" vertex="1">
          <mxGeometry x="1" relative="1" as="geometry">
            <mxPoint x="-10" y="10" as="offset" />
          </mxGeometry>
        </mxCell>
        <mxCell id="cTxIWnlI1TcFDgYOLBWV-374" value="" style="shape=link;html=1;rounded=0;strokeColor=#A8201A;fontSize=12;fontColor=default;startSize=8;endSize=8;curved=1;fillColor=#FAE5C7;exitX=0;exitY=1;exitDx=0;exitDy=0;entryX=0.5;entryY=0;entryDx=0;entryDy=0;labelBackgroundColor=none;" parent="WIyWlLk6GJQsqaUBKTNV-1" source="cTxIWnlI1TcFDgYOLBWV-342" target="cTxIWnlI1TcFDgYOLBWV-292" edge="1">
          <mxGeometry relative="1" as="geometry">
            <mxPoint x="870" y="780" as="sourcePoint" />
            <mxPoint x="730" y="625" as="targetPoint" />
          </mxGeometry>
        </mxCell>
        <mxCell id="cTxIWnlI1TcFDgYOLBWV-375" value="" style="resizable=0;html=1;whiteSpace=wrap;align=right;verticalAlign=bottom;strokeColor=#0F8B8D;fontColor=#143642;fillColor=#FAE5C7;labelBackgroundColor=none;" parent="cTxIWnlI1TcFDgYOLBWV-374" connectable="0" vertex="1">
          <mxGeometry x="1" relative="1" as="geometry">
            <mxPoint x="-10" y="10" as="offset" />
          </mxGeometry>
        </mxCell>
        <mxCell id="cTxIWnlI1TcFDgYOLBWV-376" style="edgeStyle=none;curved=1;rounded=0;orthogonalLoop=1;jettySize=auto;html=1;exitX=1;exitY=0;exitDx=0;exitDy=0;strokeColor=#A8201A;fontSize=12;fontColor=default;startSize=8;endSize=8;fillColor=#FAE5C7;labelBackgroundColor=none;" parent="WIyWlLk6GJQsqaUBKTNV-1" edge="1">
          <mxGeometry relative="1" as="geometry">
            <mxPoint x="1007" y="625" as="sourcePoint" />
            <mxPoint x="1007" y="625" as="targetPoint" />
          </mxGeometry>
        </mxCell>
        <mxCell id="cTxIWnlI1TcFDgYOLBWV-383" style="edgeStyle=none;curved=1;rounded=0;orthogonalLoop=1;jettySize=auto;html=1;exitX=0.5;exitY=0;exitDx=0;exitDy=0;strokeColor=#A8201A;fontSize=12;fontColor=default;startSize=8;endSize=8;fillColor=#FAE5C7;labelBackgroundColor=none;" parent="WIyWlLk6GJQsqaUBKTNV-1" source="cTxIWnlI1TcFDgYOLBWV-304" target="cTxIWnlI1TcFDgYOLBWV-304" edge="1">
          <mxGeometry relative="1" as="geometry" />
        </mxCell>
        <mxCell id="cTxIWnlI1TcFDgYOLBWV-390" value="Is Cooked in" style="shape=rhombus;perimeter=rhombusPerimeter;whiteSpace=wrap;html=1;align=center;strokeColor=#0F8B8D;fontColor=#143642;fillColor=#FAE5C7;labelBackgroundColor=none;" parent="WIyWlLk6GJQsqaUBKTNV-1" vertex="1">
          <mxGeometry x="1050" y="470" width="120" height="60" as="geometry" />
        </mxCell>
        <mxCell id="cTxIWnlI1TcFDgYOLBWV-392" style="edgeStyle=none;curved=1;rounded=0;orthogonalLoop=1;jettySize=auto;html=1;exitX=1;exitY=0;exitDx=0;exitDy=0;entryX=0;entryY=1;entryDx=0;entryDy=0;strokeColor=#A8201A;fontSize=12;fontColor=default;startSize=8;endSize=8;fillColor=#FAE5C7;labelBackgroundColor=none;" parent="WIyWlLk6GJQsqaUBKTNV-1" source="cTxIWnlI1TcFDgYOLBWV-391" target="cTxIWnlI1TcFDgYOLBWV-323" edge="1">
          <mxGeometry relative="1" as="geometry" />
        </mxCell>
        <mxCell id="cTxIWnlI1TcFDgYOLBWV-391" value="Based On" style="shape=rhombus;perimeter=rhombusPerimeter;whiteSpace=wrap;html=1;align=center;strokeColor=#0F8B8D;fontColor=#143642;fillColor=#FAE5C7;labelBackgroundColor=none;" parent="WIyWlLk6GJQsqaUBKTNV-1" vertex="1">
          <mxGeometry x="1070" y="350" width="120" height="60" as="geometry" />
        </mxCell>
        <mxCell id="cTxIWnlI1TcFDgYOLBWV-394" value="Belongs To" style="shape=rhombus;perimeter=rhombusPerimeter;whiteSpace=wrap;html=1;align=center;strokeColor=#0F8B8D;fontColor=#143642;fillColor=#FAE5C7;labelBackgroundColor=none;" parent="WIyWlLk6GJQsqaUBKTNV-1" vertex="1">
          <mxGeometry x="1070" y="180" width="120" height="60" as="geometry" />
        </mxCell>
        <mxCell id="cTxIWnlI1TcFDgYOLBWV-395" value="" style="endArrow=none;html=1;rounded=0;strokeColor=#A8201A;fontSize=12;fontColor=default;startSize=8;endSize=8;curved=1;fillColor=#FAE5C7;entryX=0;entryY=1;entryDx=0;entryDy=0;labelBackgroundColor=none;exitX=1.022;exitY=0.858;exitDx=0;exitDy=0;exitPerimeter=0;" parent="WIyWlLk6GJQsqaUBKTNV-1" source="cTxIWnlI1TcFDgYOLBWV-280" target="cTxIWnlI1TcFDgYOLBWV-394" edge="1">
          <mxGeometry relative="1" as="geometry">
            <mxPoint x="1000" y="280" as="sourcePoint" />
            <mxPoint x="1260" y="270" as="targetPoint" />
          </mxGeometry>
        </mxCell>
        <mxCell id="cTxIWnlI1TcFDgYOLBWV-396" value="Participates In" style="shape=rhombus;perimeter=rhombusPerimeter;whiteSpace=wrap;html=1;align=center;strokeColor=#0F8B8D;fontColor=#143642;fillColor=#FAE5C7;labelBackgroundColor=none;" parent="WIyWlLk6GJQsqaUBKTNV-1" vertex="1">
          <mxGeometry x="1241" y="510" width="120" height="60" as="geometry" />
        </mxCell>
        <mxCell id="cTxIWnlI1TcFDgYOLBWV-400" value="Is Judge In" style="shape=rhombus;perimeter=rhombusPerimeter;whiteSpace=wrap;html=1;align=center;strokeColor=#0F8B8D;fontColor=#143642;fillColor=#FAE5C7;labelBackgroundColor=none;" parent="WIyWlLk6GJQsqaUBKTNV-1" vertex="1">
          <mxGeometry x="1410" y="380" width="120" height="60" as="geometry" />
        </mxCell>
        <mxCell id="cTxIWnlI1TcFDgYOLBWV-402" value="Has Specialty In" style="shape=rhombus;perimeter=rhombusPerimeter;whiteSpace=wrap;html=1;align=center;strokeColor=#0F8B8D;fontColor=#143642;fillColor=#FAE5C7;labelBackgroundColor=none;" parent="WIyWlLk6GJQsqaUBKTNV-1" vertex="1">
          <mxGeometry x="1410" y="197.5" width="120" height="60" as="geometry" />
        </mxCell>
        <mxCell id="cTxIWnlI1TcFDgYOLBWV-403" style="edgeStyle=none;curved=1;rounded=0;orthogonalLoop=1;jettySize=auto;html=1;exitX=0;exitY=0;exitDx=0;exitDy=0;entryX=1;entryY=0.25;entryDx=0;entryDy=0;strokeColor=#A8201A;fontSize=12;fontColor=default;startSize=8;endSize=8;fillColor=#FAE5C7;labelBackgroundColor=none;" parent="WIyWlLk6GJQsqaUBKTNV-1" source="cTxIWnlI1TcFDgYOLBWV-402" target="cTxIWnlI1TcFDgYOLBWV-322" edge="1">
          <mxGeometry relative="1" as="geometry" />
        </mxCell>
        <mxCell id="cTxIWnlI1TcFDgYOLBWV-404" value="Belongs To" style="shape=rhombus;perimeter=rhombusPerimeter;whiteSpace=wrap;html=1;align=center;strokeColor=#0F8B8D;fontColor=#143642;fillColor=#FAE5C7;labelBackgroundColor=none;" parent="WIyWlLk6GJQsqaUBKTNV-1" vertex="1">
          <mxGeometry x="1070" y="20" width="120" height="60" as="geometry" />
        </mxCell>
        <mxCell id="cTxIWnlI1TcFDgYOLBWV-405" value="Uses" style="shape=rhombus;perimeter=rhombusPerimeter;whiteSpace=wrap;html=1;align=center;strokeColor=#0F8B8D;fontColor=#143642;fillColor=#FAE5C7;labelBackgroundColor=none;" parent="WIyWlLk6GJQsqaUBKTNV-1" vertex="1">
          <mxGeometry x="1070" y="105" width="120" height="60" as="geometry" />
        </mxCell>
        <mxCell id="cTxIWnlI1TcFDgYOLBWV-406" value="Belongs To" style="shape=rhombus;perimeter=rhombusPerimeter;whiteSpace=wrap;html=1;align=center;strokeColor=#0F8B8D;fontColor=#143642;fillColor=#FAE5C7;labelBackgroundColor=none;" parent="WIyWlLk6GJQsqaUBKTNV-1" vertex="1">
          <mxGeometry x="670" y="220" width="120" height="60" as="geometry" />
        </mxCell>
        <mxCell id="cTxIWnlI1TcFDgYOLBWV-408" style="edgeStyle=none;curved=1;rounded=0;orthogonalLoop=1;jettySize=auto;html=1;exitX=0;exitY=0;exitDx=0;exitDy=0;entryX=0.5;entryY=1;entryDx=0;entryDy=0;strokeColor=#A8201A;fontSize=12;fontColor=default;startSize=8;endSize=8;fillColor=#FAE5C7;labelBackgroundColor=none;" parent="WIyWlLk6GJQsqaUBKTNV-1" source="cTxIWnlI1TcFDgYOLBWV-407" target="cTxIWnlI1TcFDgYOLBWV-302" edge="1">
          <mxGeometry relative="1" as="geometry" />
        </mxCell>
        <mxCell id="cTxIWnlI1TcFDgYOLBWV-407" value="Uses" style="shape=rhombus;perimeter=rhombusPerimeter;whiteSpace=wrap;html=1;align=center;strokeColor=#0F8B8D;fontColor=#143642;fillColor=#FAE5C7;labelBackgroundColor=none;" parent="WIyWlLk6GJQsqaUBKTNV-1" vertex="1">
          <mxGeometry x="738" y="470" width="120" height="60" as="geometry" />
        </mxCell>
        <mxCell id="tq3k0JGAA3eZHnV_stGM-0" value="" style="endArrow=none;html=1;rounded=0;entryX=0.5;entryY=1;entryDx=0;entryDy=0;exitX=0.5;exitY=0;exitDx=0;exitDy=0;labelBackgroundColor=none;strokeColor=#A8201A;fontColor=default;" parent="WIyWlLk6GJQsqaUBKTNV-1" source="cTxIWnlI1TcFDgYOLBWV-301" target="cTxIWnlI1TcFDgYOLBWV-406" edge="1">
          <mxGeometry width="50" height="50" relative="1" as="geometry">
            <mxPoint x="1040" y="340" as="sourcePoint" />
            <mxPoint x="1090" y="290" as="targetPoint" />
          </mxGeometry>
        </mxCell>
        <mxCell id="zbHo6MEp5NwgF1cVdPp2-0" value="Episodes" style="swimlane;childLayout=stackLayout;horizontal=1;startSize=50;horizontalStack=0;rounded=1;fontSize=14;fontStyle=0;strokeWidth=2;resizeParent=0;resizeLast=1;shadow=0;dashed=0;align=center;arcSize=4;whiteSpace=wrap;html=1;labelBackgroundColor=none;fillColor=#FAE5C7;strokeColor=#0F8B8D;fontColor=#143642;" parent="WIyWlLk6GJQsqaUBKTNV-1" vertex="1">
          <mxGeometry x="1410" y="520" width="160" height="90" as="geometry" />
        </mxCell>
        <mxCell id="zbHo6MEp5NwgF1cVdPp2-1" value="&lt;u&gt;EpisodeID&lt;/u&gt;&lt;div&gt;Season&lt;/div&gt;" style="align=left;strokeColor=none;fillColor=none;spacingLeft=4;fontSize=12;verticalAlign=top;resizable=0;rotatable=0;part=1;html=1;labelBackgroundColor=none;fontColor=#143642;" parent="zbHo6MEp5NwgF1cVdPp2-0" vertex="1">
          <mxGeometry y="50" width="160" height="40" as="geometry" />
        </mxCell>
        <mxCell id="zbHo6MEp5NwgF1cVdPp2-2" style="edgeStyle=orthogonalEdgeStyle;rounded=0;orthogonalLoop=1;jettySize=auto;html=1;exitX=0.5;exitY=1;exitDx=0;exitDy=0;labelBackgroundColor=none;strokeColor=#A8201A;fontColor=default;" parent="zbHo6MEp5NwgF1cVdPp2-0" source="zbHo6MEp5NwgF1cVdPp2-1" target="zbHo6MEp5NwgF1cVdPp2-1" edge="1">
          <mxGeometry relative="1" as="geometry" />
        </mxCell>
        <mxCell id="zbHo6MEp5NwgF1cVdPp2-6" style="edgeStyle=orthogonalEdgeStyle;rounded=0;orthogonalLoop=1;jettySize=auto;html=1;exitX=1;exitY=0;exitDx=0;exitDy=0;entryX=0.5;entryY=1;entryDx=0;entryDy=0;labelBackgroundColor=none;strokeColor=#A8201A;fontColor=default;" parent="WIyWlLk6GJQsqaUBKTNV-1" source="zbHo6MEp5NwgF1cVdPp2-4" target="zbHo6MEp5NwgF1cVdPp2-1" edge="1">
          <mxGeometry relative="1" as="geometry" />
        </mxCell>
        <mxCell id="zbHo6MEp5NwgF1cVdPp2-4" value="Has Details Of" style="shape=rhombus;perimeter=rhombusPerimeter;whiteSpace=wrap;html=1;align=center;labelBackgroundColor=none;fillColor=#FAE5C7;strokeColor=#0F8B8D;fontColor=#143642;" parent="WIyWlLk6GJQsqaUBKTNV-1" vertex="1">
          <mxGeometry x="1410" y="627.5" width="120" height="60" as="geometry" />
        </mxCell>
        <mxCell id="zbHo6MEp5NwgF1cVdPp2-9" value="" style="shape=link;html=1;rounded=0;entryX=0;entryY=1;entryDx=0;entryDy=0;exitX=0.75;exitY=0;exitDx=0;exitDy=0;labelBackgroundColor=none;strokeColor=#A8201A;fontColor=default;" parent="WIyWlLk6GJQsqaUBKTNV-1" source="cTxIWnlI1TcFDgYOLBWV-317" target="cTxIWnlI1TcFDgYOLBWV-400" edge="1">
          <mxGeometry relative="1" as="geometry">
            <mxPoint x="1420" y="500" as="sourcePoint" />
            <mxPoint x="1580" y="500" as="targetPoint" />
          </mxGeometry>
        </mxCell>
        <mxCell id="zbHo6MEp5NwgF1cVdPp2-10" value="" style="resizable=0;html=1;whiteSpace=wrap;align=right;verticalAlign=bottom;labelBackgroundColor=none;fillColor=#FAE5C7;strokeColor=#0F8B8D;fontColor=#143642;" parent="zbHo6MEp5NwgF1cVdPp2-9" connectable="0" vertex="1">
          <mxGeometry x="1" relative="1" as="geometry" />
        </mxCell>
        <mxCell id="zbHo6MEp5NwgF1cVdPp2-11" value="" style="shape=link;html=1;rounded=0;exitX=0.5;exitY=0;exitDx=0;exitDy=0;entryX=0.5;entryY=1;entryDx=0;entryDy=0;labelBackgroundColor=none;strokeColor=#A8201A;fontColor=default;" parent="WIyWlLk6GJQsqaUBKTNV-1" source="cTxIWnlI1TcFDgYOLBWV-317" target="cTxIWnlI1TcFDgYOLBWV-396" edge="1">
          <mxGeometry relative="1" as="geometry">
            <mxPoint x="1420" y="500" as="sourcePoint" />
            <mxPoint x="1580" y="500" as="targetPoint" />
          </mxGeometry>
        </mxCell>
        <mxCell id="zbHo6MEp5NwgF1cVdPp2-12" value="" style="resizable=0;html=1;whiteSpace=wrap;align=right;verticalAlign=bottom;labelBackgroundColor=none;fillColor=#FAE5C7;strokeColor=#0F8B8D;fontColor=#143642;" parent="zbHo6MEp5NwgF1cVdPp2-11" connectable="0" vertex="1">
          <mxGeometry x="1" relative="1" as="geometry">
            <mxPoint x="-10" y="10" as="offset" />
          </mxGeometry>
        </mxCell>
        <mxCell id="zbHo6MEp5NwgF1cVdPp2-13" value="" style="shape=link;html=1;rounded=0;exitX=1;exitY=1;exitDx=0;exitDy=0;entryX=0.25;entryY=0;entryDx=0;entryDy=0;labelBackgroundColor=none;strokeColor=#A8201A;fontColor=default;" parent="WIyWlLk6GJQsqaUBKTNV-1" source="cTxIWnlI1TcFDgYOLBWV-391" target="cTxIWnlI1TcFDgYOLBWV-317" edge="1">
          <mxGeometry relative="1" as="geometry">
            <mxPoint x="970" y="500" as="sourcePoint" />
            <mxPoint x="1300" y="610" as="targetPoint" />
          </mxGeometry>
        </mxCell>
        <mxCell id="zbHo6MEp5NwgF1cVdPp2-14" value="" style="resizable=0;html=1;whiteSpace=wrap;align=right;verticalAlign=bottom;labelBackgroundColor=none;fillColor=#FAE5C7;strokeColor=#0F8B8D;fontColor=#143642;" parent="zbHo6MEp5NwgF1cVdPp2-13" connectable="0" vertex="1">
          <mxGeometry x="1" relative="1" as="geometry" />
        </mxCell>
        <mxCell id="zbHo6MEp5NwgF1cVdPp2-16" value="" style="shape=link;html=1;rounded=0;entryX=1;entryY=0.5;entryDx=0;entryDy=0;exitX=0;exitY=1;exitDx=0;exitDy=0;labelBackgroundColor=none;strokeColor=#A8201A;fontColor=default;" parent="WIyWlLk6GJQsqaUBKTNV-1" source="zbHo6MEp5NwgF1cVdPp2-4" target="cTxIWnlI1TcFDgYOLBWV-318" edge="1">
          <mxGeometry relative="1" as="geometry">
            <mxPoint x="970" y="500" as="sourcePoint" />
            <mxPoint x="1130" y="500" as="targetPoint" />
          </mxGeometry>
        </mxCell>
        <mxCell id="zbHo6MEp5NwgF1cVdPp2-17" value="1" style="resizable=0;html=1;whiteSpace=wrap;align=right;verticalAlign=bottom;labelBackgroundColor=none;fillColor=#FAE5C7;strokeColor=#0F8B8D;fontColor=#143642;" parent="zbHo6MEp5NwgF1cVdPp2-16" connectable="0" vertex="1">
          <mxGeometry x="1" relative="1" as="geometry" />
        </mxCell>
        <mxCell id="zbHo6MEp5NwgF1cVdPp2-19" value="" style="shape=link;html=1;rounded=0;exitX=1;exitY=1;exitDx=0;exitDy=0;labelBackgroundColor=none;strokeColor=#A8201A;fontColor=default;" parent="WIyWlLk6GJQsqaUBKTNV-1" source="cTxIWnlI1TcFDgYOLBWV-390" target="cTxIWnlI1TcFDgYOLBWV-317" edge="1">
          <mxGeometry relative="1" as="geometry">
            <mxPoint x="970" y="400" as="sourcePoint" />
            <mxPoint x="1130" y="400" as="targetPoint" />
          </mxGeometry>
        </mxCell>
        <mxCell id="zbHo6MEp5NwgF1cVdPp2-20" value="" style="resizable=0;html=1;whiteSpace=wrap;align=right;verticalAlign=bottom;labelBackgroundColor=none;fillColor=#FAE5C7;strokeColor=#0F8B8D;fontColor=#143642;" parent="zbHo6MEp5NwgF1cVdPp2-19" connectable="0" vertex="1">
          <mxGeometry x="1" relative="1" as="geometry" />
        </mxCell>
      </root>
    </mxGraphModel>
  </diagram>
</mxfile>
